<?xml version="1.0" encoding="UTF-8" standalone="no"?>
<svg
   viewBox="0 0 512 512"
   version="1.1"
   id="svg4"
   sodipodi:docname="add-image.svg"
   inkscape:version="1.1.2 (1:1.1+202202050950+0a00cf5339)"
   xmlns:inkscape="http://www.inkscape.org/namespaces/inkscape"
   xmlns:sodipodi="http://sodipodi.sourceforge.net/DTD/sodipodi-0.dtd"
   xmlns="http://www.w3.org/2000/svg"
   xmlns:svg="http://www.w3.org/2000/svg">
  <defs
     id="defs8" />
  <sodipodi:namedview
     id="namedview6"
     pagecolor="#ffffff"
     bordercolor="#666666"
     borderopacity="1.0"
     inkscape:pageshadow="2"
     inkscape:pageopacity="0.0"
     inkscape:pagecheckerboard="0"
     showgrid="false"
     inkscape:zoom="0.73334707"
     inkscape:cx="138.4065"
     inkscape:cy="304.76702"
     inkscape:window-width="1366"
     inkscape:window-height="716"
     inkscape:window-x="0"
     inkscape:window-y="0"
     inkscape:window-maximized="1"
     inkscape:current-layer="svg4" />
  <!--! Font Awesome Pro 6.1.1 by @fontawesome - https://fontawesome.com License - https://fontawesome.com/license (Commercial License) Copyright 2022 Fonticons, Inc. -->
  <path
     id="path2"
     style="fill:#535353;fill-opacity:1"
     d="M 63.099609 32 C 28.639609 32 -0.009765625 60.65 -0.009765625 96 L -0.009765625 416 C -0.009765625 451.35 28.641797 480 63.091797 480 L 447.0918 480 C 482.4418 480 511.0918 451.35 511.0918 416 L 511.0918 96 C 511.1009 60.65 483.29961 32 447.09961 32 L 63.099609 32 z M 409.19531 67.974609 C 415.09909 67.974609 419.88672 72.759453 419.88672 78.669922 L 419.88672 126.78125 L 467.99805 126.78125 C 473.91186 126.77825 478.68945 131.55494 478.68945 137.46875 C 478.68945 143.37922 473.90184 148.16406 467.99805 148.16406 L 419.88672 148.16406 L 419.88672 196.27734 C 419.88672 202.18781 415.09909 206.96484 409.19531 206.96484 C 403.29153 206.96484 398.50195 202.18781 398.50195 196.27734 L 398.50195 148.16406 L 350.39062 148.16406 C 344.48683 148.16406 339.69922 143.37922 339.69922 137.46875 C 339.69922 131.55828 344.48683 126.78125 350.39062 126.78125 L 398.50195 126.78125 L 398.50195 78.669922 C 398.50195 72.759453 403.29153 67.974609 409.19531 67.974609 z M 111.09961 96 C 137.60961 96 159.09961 117.49 159.09961 144 C 159.09961 170.51 138.49961 192 111.09961 192 C 83.699609 192 63.099609 170.51 63.099609 144 C 63.099609 117.49 85.479609 96 111.09961 96 z M 304 192 C 309.3 192 314.35055 194.672 317.31055 199.125 L 445.31055 391.125 C 448.60055 396 448.89961 402.29961 446.09961 407.59961 C 443.29961 412.79961 437.9 416 432 416 L 82.009766 416 C 75.988766 416 70.48 412.621 67.75 407.25 C 65.02 401.883 65.534984 395.44031 69.083984 390.57031 L 139.08398 294.57031 C 142.09998 290.40031 146.9 288 152 288 C 157.1 288 161.91569 290.44122 164.92969 294.57422 L 197.39062 339.08398 L 290.68945 199.98438 C 293.69945 194.70037 298.7 192 304 192 z " />
</svg>
