<svg width="282" height="46" viewBox="0 0 282 46" fill="none" xmlns="http://www.w3.org/2000/svg">
<path d="M39.3463 44.808C38.4929 45.2773 37.5756 45.512 36.5943 45.512C35.8263 45.512 35.2076 45.3627 34.7383 45.064C34.3116 44.808 33.8636 44.3173 33.3943 43.592L23.6663 27.848C22.6849 26.2693 21.6396 25.224 20.5303 24.712C19.4636 24.1573 17.7569 23.88 15.4103 23.88H12.9143V45H8.30625V0.199997H12.9143V19.912H16.6903C17.4583 19.912 18.0343 19.9333 18.4183 19.976L33.5223 0.199997H38.8343L22.5143 21.256C24.3063 22.2373 26.0129 23.9867 27.6343 26.504L39.3463 44.808ZM81.3528 45C80.2008 39.7093 79.1128 35.3787 78.0888 32.008H56.3288C55.3048 35.3787 54.2168 39.7093 53.0648 45H48.3288C50.5474 35.8693 52.9581 27.7627 55.5608 20.68C58.1634 13.5547 61.2568 6.728 64.8408 0.199997H69.6408C73.1821 6.68533 76.2541 13.4907 78.8568 20.616C81.4594 27.6987 83.8701 35.8267 86.0888 45H81.3528ZM77.0008 28.168C74.3981 19.8907 71.1341 12.1253 67.2088 4.872C63.2834 12.1253 60.0194 19.8907 57.4168 28.168H77.0008ZM131.856 36.232C131.856 37.5547 131.899 39.112 131.984 40.904C132.07 42.0987 132.112 42.888 132.112 43.272C132.112 44.424 131.558 45 130.448 45H127.248V41.544C127.248 39.0693 126.416 36.7013 124.752 34.44L103.568 6.536V45H98.9603V0.199997H102.672C103.227 0.199997 103.654 0.28533 103.952 0.455997C104.294 0.583998 104.678 0.925332 105.104 1.48L127.248 30.6V0.199997H131.856V36.232ZM172.652 21.896C174.998 22.536 176.918 23.8373 178.412 25.8C179.905 27.7627 180.652 30.024 180.652 32.584C180.652 36.552 179.286 39.624 176.556 41.8C173.825 43.9333 169.942 45 164.908 45H149.548V0.199997H164.268C168.705 0.199997 172.204 1.26666 174.764 3.4C177.324 5.49067 178.604 8.34933 178.604 11.976C178.604 14.2373 178.049 16.264 176.94 18.056C175.873 19.848 174.444 21.128 172.652 21.896ZM173.996 11.976C173.996 9.50133 173.121 7.56 171.372 6.152C169.665 4.744 167.297 4.04 164.268 4.04H154.156V20.36H164.076C170.689 20.36 173.996 17.5653 173.996 11.976ZM164.268 41.16C168.449 41.16 171.457 40.4987 173.292 39.176C175.126 37.8107 176.044 35.6133 176.044 32.584C176.044 29.5973 175.084 27.4213 173.164 26.056C171.286 24.6907 168.278 24.008 164.14 24.008H154.156V41.16H164.268ZM223.803 45C222.651 39.7093 221.563 35.3787 220.539 32.008H198.779C197.755 35.3787 196.667 39.7093 195.515 45H190.779C192.997 35.8693 195.408 27.7627 198.011 20.68C200.613 13.5547 203.707 6.728 207.291 0.199997H212.091C215.632 6.68533 218.704 13.4907 221.307 20.616C223.909 27.6987 226.32 35.8267 228.539 45H223.803ZM219.451 28.168C216.848 19.8907 213.584 12.1253 209.659 4.872C205.733 12.1253 202.469 19.8907 199.867 28.168H219.451ZM274.306 36.232C274.306 37.5547 274.349 39.112 274.434 40.904C274.52 42.0987 274.562 42.888 274.562 43.272C274.562 44.424 274.008 45 272.898 45H269.698V41.544C269.698 39.0693 268.866 36.7013 267.202 34.44L246.018 6.536V45H241.41V0.199997H245.122C245.677 0.199997 246.104 0.28533 246.402 0.455997C246.744 0.583998 247.128 0.925332 247.554 1.48L269.698 30.6V0.199997H274.306V36.232Z" fill="white"/>
</svg>
