<svg width="300" height="300" viewBox="0 0 300 300" fill="none" xmlns="http://www.w3.org/2000/svg">
<circle cx="92.5" cy="89.5" r="80.5" fill="url(#paint0_linear_4_22)" fill-opacity="0.74"/>
<circle cx="223" cy="149" r="64" fill="url(#paint1_linear_4_22)" fill-opacity="0.76"/>
<path d="M219 240C219 269.271 195.271 293 166 293C136.729 293 113 269.271 113 240C113 210.729 136.729 187 166 187C195.271 187 219 210.729 219 240Z" fill="url(#paint2_linear_4_22)" fill-opacity="0.63"/>
<g filter="url(#filter0_d_4_22)">
<path d="M60.8371 154.776C59.9784 155.261 58.8211 155.504 57.3651 155.504C56.5811 155.504 55.9464 155.373 55.4611 155.112C54.9757 154.851 54.5277 154.403 54.1171 153.768L45.9971 140.552C45.1011 139.133 44.2237 138.2 43.3651 137.752C42.5437 137.304 41.1997 137.08 39.3331 137.08H37.7651V155H32.2211V115.8H37.7651V132.88H40.8451C41.2931 132.88 41.6291 132.899 41.8531 132.936L54.2851 115.8H60.3891L46.6131 134.336C48.1811 135.269 49.6371 136.819 50.9811 138.984L60.8371 154.776ZM96.7265 155C95.9798 150.931 95.1772 147.328 94.3185 144.192H76.4545C75.5958 147.328 74.7932 150.931 74.0465 155H68.5025C70.0332 147.459 71.9185 140.533 74.1585 134.224C76.4358 127.877 79.2358 121.736 82.5585 115.8H88.2705C91.5932 121.699 94.3745 127.803 96.6145 134.112C98.8918 140.421 100.777 147.384 102.271 155H96.7265ZM93.1425 139.88C91.1265 133.011 88.5505 126.589 85.4145 120.616C82.2412 126.515 79.6465 132.936 77.6305 139.88H93.1425ZM142.86 147.328C142.86 148.485 142.897 149.848 142.972 151.416C143.047 152.461 143.084 153.152 143.084 153.488C143.084 154.496 142.599 155 141.628 155H137.316V152.368C137.316 150.24 136.588 148.168 135.132 146.152L118.668 123.528V155H113.124V115.8H117.884C118.369 115.8 118.761 115.875 119.06 116.024C119.359 116.136 119.676 116.435 120.012 116.92L137.316 140.664V115.8H142.86V147.328ZM178.608 134.728C180.661 135.288 182.323 136.427 183.592 138.144C184.899 139.824 185.552 141.765 185.552 143.968C185.552 147.477 184.32 150.203 181.856 152.144C179.429 154.048 175.995 155 171.552 155H157.776V115.8H170.992C174.912 115.8 178.011 116.752 180.288 118.656C182.603 120.523 183.76 123.061 183.76 126.272C183.76 128.251 183.293 130.005 182.36 131.536C181.427 133.029 180.176 134.093 178.608 134.728ZM178.16 126.272C178.16 124.256 177.469 122.707 176.088 121.624C174.744 120.541 172.803 120 170.264 120H163.32V132.992H170.096C172.821 132.992 174.837 132.451 176.144 131.368C177.488 130.248 178.16 128.549 178.16 126.272ZM170.656 150.8C174.053 150.8 176.443 150.277 177.824 149.232C179.243 148.187 179.952 146.432 179.952 143.968C179.952 141.541 179.205 139.787 177.712 138.704C176.256 137.621 173.867 137.08 170.544 137.08H163.32V150.8H170.656ZM222.409 155C221.663 150.931 220.86 147.328 220.001 144.192H202.137C201.279 147.328 200.476 150.931 199.729 155H194.185C195.716 147.459 197.601 140.533 199.841 134.224C202.119 127.877 204.919 121.736 208.241 115.8H213.953C217.276 121.699 220.057 127.803 222.297 134.112C224.575 140.421 226.46 147.384 227.953 155H222.409ZM218.825 139.88C216.809 133.011 214.233 126.589 211.097 120.616C207.924 126.515 205.329 132.936 203.313 139.88H218.825ZM268.543 147.328C268.543 148.485 268.58 149.848 268.655 151.416C268.729 152.461 268.767 153.152 268.767 153.488C268.767 154.496 268.281 155 267.311 155H262.999V152.368C262.999 150.24 262.271 148.168 260.815 146.152L244.351 123.528V155H238.807V115.8H243.567C244.052 115.8 244.444 115.875 244.743 116.024C245.041 116.136 245.359 116.435 245.695 116.92L262.999 140.664V115.8H268.543V147.328Z" fill="white"/>
</g>
<defs>
<filter id="filter0_d_4_22" x="28.2211" y="113.8" width="248.546" height="51.704" filterUnits="userSpaceOnUse" color-interpolation-filters="sRGB">
<feFlood flood-opacity="0" result="BackgroundImageFix"/>
<feColorMatrix in="SourceAlpha" type="matrix" values="0 0 0 0 0 0 0 0 0 0 0 0 0 0 0 0 0 0 127 0" result="hardAlpha"/>
<feOffset dx="2" dy="4"/>
<feGaussianBlur stdDeviation="3"/>
<feComposite in2="hardAlpha" operator="out"/>
<feColorMatrix type="matrix" values="0 0 0 0 0 0 0 0 0 0 0 0 0 0 0 0 0 0 0.42 0"/>
<feBlend mode="normal" in2="BackgroundImageFix" result="effect1_dropShadow_4_22"/>
<feBlend mode="normal" in="SourceGraphic" in2="effect1_dropShadow_4_22" result="shape"/>
</filter>
<linearGradient id="paint0_linear_4_22" x1="36" y1="9" x2="163" y2="170" gradientUnits="userSpaceOnUse">
<stop stop-color="#E756FF"/>
<stop offset="1" stop-color="#6A52FF"/>
</linearGradient>
<linearGradient id="paint1_linear_4_22" x1="159" y1="137" x2="304" y2="149" gradientUnits="userSpaceOnUse">
<stop stop-color="#875EFF"/>
<stop offset="1" stop-color="#001AFF"/>
</linearGradient>
<linearGradient id="paint2_linear_4_22" x1="202" y1="187" x2="129" y2="293" gradientUnits="userSpaceOnUse">
<stop stop-color="#3959FF"/>
<stop offset="1" stop-color="#51D5F2"/>
</linearGradient>
</defs>
</svg>
